<?xml version="1.0" encoding="utf-8"?>
<!-- Generator: Adobe Illustrator 16.0.0, SVG Export Plug-In . SVG Version: 6.00 Build 0)  -->
<!DOCTYPE svg PUBLIC "-//W3C//DTD SVG 1.1//EN" "http://www.w3.org/Graphics/SVG/1.1/DTD/svg11.dtd">
<svg version="1.1" id="Layer_1" xmlns="http://www.w3.org/2000/svg" xmlns:xlink="http://www.w3.org/1999/xlink" x="0px" y="0px"
	 width="1400px" height="980px" viewBox="0 0 1400 980" enable-background="new 0 0 1400 980" xml:space="preserve">
<pattern  width="404" height="372" patternUnits="userSpaceOnUse" id="New_Pattern_Swatch_1" viewBox="0 -372 404 372" overflow="visible">
	<g>
		<polygon fill="none" points="0,0 404,0 404,-372 0,-372 		"/>
		<path fill="none" d="M337.404-122.728c-0.061,0.011-0.142,0.025-0.206,0.037c0.077,0.064,0.148,0.135,0.223,0.202L337.404-122.728
			z"/>
		<path fill="none" d="M287.941-112.369c-0.689-0.55-1.518-0.841-2.398-0.841c-1.178,0-2.274,0.527-3.008,1.446
			c-0.603,0.755-0.817,1.58-0.635,2.451c0.183,0.879,0.767,1.749,1.644,2.449c0.857,0.685,1.815,1.062,2.697,1.062
			c0.913,0,1.688-0.391,2.303-1.161C289.869-108.621,289.598-111.045,287.941-112.369z"/>
		<path fill="none" d="M255.89-100.698c-0.342-1.636,0.07-3.288,1.159-4.651c1.241-1.553,3.093-2.443,5.083-2.443
			c1.467,0,2.908,0.505,4.055,1.422c2.8,2.237,3.258,6.337,1.021,9.137c-0.019,0.023-0.039,0.042-0.058,0.065
			c14.911-0.621,28.65-2.176,39.789-3.824c-0.283-0.174-0.565-0.354-0.833-0.568c-1.358-1.085-2.276-2.499-2.585-3.98
			c-0.341-1.636,0.07-3.288,1.16-4.651c1.24-1.553,3.093-2.444,5.083-2.444c1.467,0,2.907,0.505,4.056,1.422
			c2.739,2.188,3.229,6.155,1.156,8.949c11.704-1.977,19.073-3.769,19.642-3.909l-0.029-0.09l3.857-1.246l-0.411-6.011
			c-1.193,1.424-2.983,2.333-4.983,2.333c-3.447,0-5.854-2.673-5.854-6.501c0-1.27,0.27-2.407,0.749-3.367
			c-9.371,1.622-23.729,4.013-38.956,6.206c0.207,0.13,0.417,0.254,0.609,0.407c2.8,2.237,3.258,6.336,1.021,9.137
			c-1.112,1.393-2.667,2.159-4.378,2.159c-1.482,0-3.029-0.583-4.355-1.643c-1.358-1.085-2.276-2.499-2.585-3.981
			c-0.342-1.636,0.07-3.288,1.159-4.651c0.076-0.095,0.16-0.179,0.24-0.268c-9.531,1.292-19.101,2.442-27.727,3.214l2.209,13.866
			l3.125-0.188l-0.016-0.076C257.038-97.937,256.184-99.285,255.89-100.698z"/>
		<path fill="none" d="M164.597-203.999C164.74-204.203,164.705-204.481,164.597-203.999L164.597-203.999z"/>
		<path fill="none" d="M307.763-103.636c0.857,0.685,1.815,1.063,2.697,1.063c0.913,0,1.688-0.391,2.304-1.162
			c1.323-1.657,1.053-4.082-0.604-5.405c-0.689-0.551-1.518-0.841-2.398-0.841c-1.178,0-2.274,0.527-3.008,1.445
			c-0.603,0.755-0.817,1.58-0.635,2.452C306.303-105.206,306.887-104.336,307.763-103.636z"/>
		<path fill="none" d="M285.229-62.793c0-2.121-1.725-3.846-3.846-3.846c-2.361,0-3.199,2.071-3.199,3.846
			c0,1.774,0.838,3.846,3.199,3.846C283.504-58.947,285.229-60.672,285.229-62.793z"/>
		<path fill="none" d="M260.132-98.792c0.857,0.685,1.815,1.063,2.698,1.063c0.913,0,1.688-0.391,2.304-1.161
			c1.323-1.657,1.052-4.082-0.604-5.405c-0.689-0.55-1.518-0.842-2.398-0.842c-1.178,0-2.274,0.527-3.008,1.446
			c-0.603,0.755-0.817,1.58-0.635,2.451C258.672-100.361,259.256-99.492,260.132-98.792z"/>
		<path fill="none" d="M303.727-74.573c0.857,0.685,1.815,1.062,2.697,1.062c0.913,0,1.688-0.391,2.304-1.161
			c1.324-1.657,1.053-4.082-0.604-5.405c-0.689-0.551-1.518-0.841-2.397-0.841c-1.178,0-2.274,0.526-3.008,1.445
			c-0.603,0.755-0.817,1.58-0.635,2.452C302.266-76.143,302.85-75.273,303.727-74.573z"/>
		<path fill="none" d="M287.55-40.791c-0.596-0.356-1.277-0.545-1.967-0.545c-1.369,0-2.605,0.701-3.307,1.874
			c-0.496,0.83-0.597,1.676-0.298,2.515c0.3,0.846,0.996,1.628,1.959,2.204c0.786,0.47,1.605,0.717,2.37,0.717
			c0.767,0,1.835-0.258,2.572-1.492C289.967-37.337,289.37-39.703,287.55-40.791z"/>
		<path fill="none" d="M283.805-84.781c2.121,0,3.846-1.725,3.846-3.846c0-2.12-1.725-3.845-3.846-3.845
			c-2.361,0-3.199,2.071-3.199,3.845C280.606-86.853,281.444-84.781,283.805-84.781z"/>
		<path fill="none" d="M214.276-203.375c-0.88-1.241-7.25-4.71-7.817-2.185c-0.644,2.869-0.476,6.102-0.125,9.269
			c0.146-0.055,0.3-0.099,0.466-0.118C209.858-196.76,217.583-198.713,214.276-203.375z"/>
		<path fill="none" d="M227.552-317.01c8.051,7.926,36.064,27.326,47.286,22.713c3.432-1.409,5.754-3.123,6.931-5.108
			C275.663-313.87,238.884-316.532,227.552-317.01z"/>
		<path fill="none" d="M192.568-183.438c-1.464-5.227-2.941-10.458-4.64-15.614c-0.406-1.233-0.827-2.465-1.279-3.685
			c-1.205,7.666-0.798,15.934-0.964,23.563c-0.06,2.725-0.105,5.449-0.148,8.174c3.169,0,6.829,0,10.559,0
			C194.956-175.172,193.721-179.321,192.568-183.438z"/>
		<path fill="none" d="M32.385-298.22c1.56,0.993,2.384,4.281,4.024,12.112c0.729,3.478,1.784,8.515,2.644,10.305
			c2.283-2.44,8.075-13.142,12.614-22.638l0.213-0.444l0.435-0.232c0.7-0.374,1.666-0.54,3.131-0.54
			c2.485,0,6.068,0.498,9.861,1.024c3.893,0.541,7.917,1.099,10.71,1.099c1.544,0,2.23-0.176,2.505-0.284
			c-0.406-1.907-6.173-7.585-9.326-10.688c-5.265-5.183-6.966-6.987-6.966-8.514c0-0.961,0.462-2.739,1.348-5.942
			C64.521-326.368,66.69-334,65.952-336c0,0-0.001,0-0.001,0c-2.198,0-8.597,3.723-12.831,6.146
			c-4.898,2.803-6.714,3.814-7.859,3.814c-1.359,0-3.422-1.392-10.324-6.587c-3.387-2.549-8.329-6.263-10.269-7.132
			c-0.749,2.504-0.729,11.317-0.718,16.229c0.011,4.864,0.004,7.677-0.252,8.875c-0.444,2.074-3.625,4.758-8.778,8.964
			c-2.187,1.785-5.301,4.328-6.509,5.735c2.29,0.552,8.426,0.638,12.291,0.693C28-299.161,31.1-299.038,32.385-298.22z"/>
		<path fill="none" d="M172.829-195.507c1.065-4.719-2.128-7.446-6.506-8.167c-0.573-0.094-1.17-0.175-1.757-0.172
			c-0.002,0.01-0.003,0.014-0.005,0.024c-0.177,0.969-0.247,1.956-0.298,2.938c-0.149,2.834-0.181,5.675-0.17,8.513
			c0,0.151,0.004,0.302,0.005,0.454C167.665-190.051,171.767-190.808,172.829-195.507z"/>
		<path fill="none" d="M142.796-84.539c-3.282,0.949-7.18,3.612-7.115,10.911c0.148,16.476,30.808,20.018,37.637,20.602
			c3.971-5.892,20.213-31.703,7.573-42.112c-5.699-4.693-10.484-3.173-13.495-1.073c-4.958,3.459-8.012,10.781-6.409,15.36
			l-1.416,0.496l-1.276,0.789C155.7-83.763,148.314-86.133,142.796-84.539z"/>
		<path fill="none" d="M186.5-294.247c-4.879,11.942-5.802,32.601-5.967,41.541c3.867-4.776,9.464-11.437,9.766-11.795l1.855-2.207
			l0.742,2.786c1.232,4.62,6.147,10.341,9.235,13.594c-0.15-31.757,7.861-56.014,10.34-62.749c-2.06-0.359-3.945-1.231-5.524-2.487
			C205.627-313.813,197.013-302.612,186.5-294.247z"/>
		<path fill="none" d="M225.838-256c3.208-7.142,6.552-17.183,6.595-17.311l0.936-2.818l1.713,2.425
			c2.768,3.917,10.172,8.853,13.902,11.193c-0.117-21.621-11.895-41.203-13.799-44.228c-5.455-3.996-9.716-7.794-11.556-10.148
			c-2.041,2.215-4.855,3.683-8.008,3.951c-0.341,0.89-0.917,2.46-1.63,4.626l0.755-0.476
			C222.576-296.374,225.099-268.117,225.838-256z"/>
		<path fill="none" d="M182.736-322.048l-0.69-2.92c9.939-2.349,16.901-1.343,20.145-0.549c0.004-0.639,0.067-1.263,0.163-1.876
			c-0.913-0.92-5.938-5.333-20.199-7.606l0.473-2.963c12.158,1.938,18.118,5.422,20.652,7.403c0.233-0.525,0.503-1.029,0.804-1.513
			c-2.248-4.078-10.165-14.134-35.257-20.083c-5.184-1.229-8.643-0.985-10.283,0.725c-2.789,2.908-0.691,10.354,0.994,16.338
			c1.069,3.795,1.992,7.072,1.857,9.4c-0.213,3.689-1.925,7.706-3.738,11.958c-2.773,6.506-5.63,13.209-2.972,18.725
			c12.384-19.295,43.152-22.573,49.875-23.065c-0.9-1.252-1.572-2.678-1.966-4.219C200.693-322.881,193.614-324.62,182.736-322.048z
			"/>
		<path fill="none" d="M208.391-318.265l0.584-0.026l-0.24,0.323c1.605,1.302,3.635,2.086,5.843,2.086
			c3.007,0,5.682-1.45,7.403-3.692l-0.317-0.561l0.721,0.006c1.001-1.518,1.587-3.342,1.587-5.303c0-5.266-4.214-9.55-9.394-9.55
			c-5.179,0-9.393,4.284-9.393,9.55C205.186-322.576,206.431-320.017,208.391-318.265z"/>
		<path fill="none" d="M310.546-53.436c-0.688-0.55-1.518-0.841-2.397-0.841c-1.178,0-2.274,0.527-3.008,1.446
			c-0.603,0.755-0.817,1.58-0.635,2.451c0.184,0.879,0.767,1.749,1.644,2.448c0.857,0.685,1.815,1.063,2.697,1.063
			c0.913,0,1.688-0.391,2.304-1.161C312.473-49.688,312.203-52.112,310.546-53.436z"/>
		<path fill="none" d="M202.574-314.866c-9.438,1.02-36.012,5.377-46.034,22.573c2.636,3.008,5.733,4.471,9.496,4.403
			C179.575-288.062,196.675-307.595,202.574-314.866z"/>
		<path fill="none" d="M282.624-303.814c-0.419-3.452-2.856-7.179-5.122-10.232c-5.516-7.432-5.319-16.234-5.308-16.605
			c0.078-2.091,1.106-4.407,2.196-6.859c2.787-6.275,5.946-13.388-3.786-20.526c-13.739-10.078-41.307,18.583-46.668,24.401
			c0.397,0.464,0.76,0.957,1.087,1.476c2.898-2.389,9.616-7.045,17.977-7.045v3c-8.21,0-14.588,5.021-16.652,6.863
			c0.18,0.553,0.318,1.123,0.421,1.706c3.201-1.234,9.818-3.063,16.816-0.654l-0.977,2.837c-6.878-2.369-13.517,0.049-15.685,0.997
			c-0.119,1.555-0.52,3.028-1.15,4.374C233.967-319.868,271.682-318.103,282.624-303.814z"/>
		<path fill="none" d="M333.05-121.535c-2.361,0-3.199,2.071-3.199,3.846c0,1.774,0.838,3.845,3.199,3.845
			c2.121,0,3.846-1.725,3.846-3.845C336.896-119.81,335.171-121.535,333.05-121.535z"/>
		<path fill="none" d="M333.783-103.25l4.665,64.919c-20.224,8.727-46.376,9.679-56.786,9.679c-1.959,0-3.376-0.034-4.094-0.057
			c-2.461-4.332-10.91-41.513-16.022-65.617C296.808-95.19,326.791-101.639,333.783-103.25z M277.951-88.627
			c0,3.828,2.407,6.501,5.854,6.501c3.585,0,6.501-2.916,6.501-6.501c0-3.584-2.916-6.501-6.501-6.501
			C280.358-95.128,277.951-92.455,277.951-88.627z M281.383-56.292c3.584,0,6.501-2.917,6.501-6.501s-2.917-6.501-6.501-6.501
			c-3.447,0-5.855,2.673-5.855,6.501C275.528-58.965,277.936-56.292,281.383-56.292z M288.912-43.07
			c-1.008-0.603-2.16-0.921-3.329-0.921c-2.278,0-4.418,1.213-5.586,3.167c-0.896,1.499-1.081,3.191-0.521,4.766
			c0.507,1.427,1.607,2.704,3.1,3.596c1.197,0.715,2.487,1.093,3.731,1.093c2.025,0,3.793-1.015,4.852-2.785
			C292.997-37.232,291.989-41.231,288.912-43.07z M302.069-72.499c1.326,1.06,2.873,1.644,4.354,1.644
			c1.711,0,3.266-0.767,4.378-2.159c2.238-2.801,1.78-6.9-1.02-9.137c-1.148-0.917-2.588-1.422-4.055-1.422
			c-1.99,0-3.842,0.891-5.083,2.443c-1.09,1.363-1.501,3.015-1.16,4.651C299.793-74.997,300.711-73.583,302.069-72.499z
			 M312.204-55.51c-1.148-0.917-2.588-1.422-4.055-1.422c-1.99,0-3.842,0.891-5.083,2.443c-1.089,1.363-1.501,3.015-1.16,4.651
			c0.309,1.482,1.228,2.896,2.585,3.98c1.326,1.06,2.873,1.643,4.354,1.643c1.711,0,3.266-0.767,4.378-2.159
			C315.461-49.174,315.004-53.273,312.204-55.51z M322.251-62.811c1.326,1.06,2.873,1.643,4.355,1.643
			c1.711,0,3.266-0.767,4.379-2.159c2.237-2.801,1.779-6.9-1.021-9.137c-1.148-0.917-2.588-1.422-4.055-1.422
			c-1.99,0-3.842,0.891-5.083,2.444c-1.089,1.363-1.501,3.015-1.16,4.651C319.975-65.31,320.894-63.895,322.251-62.811z
			 M330.629-52.341c-3.447,0-5.854,2.673-5.854,6.501c0,3.828,2.407,6.501,5.854,6.501c3.584,0,6.501-2.916,6.501-6.501
			C337.13-49.424,334.213-52.341,330.629-52.341z M333.901-91.049c0-3.584-2.917-6.501-6.501-6.501
			c-3.447,0-5.854,2.673-5.854,6.501c0,3.828,2.407,6.501,5.854,6.501C330.984-84.547,333.901-87.464,333.901-91.049z"/>
		<path fill="none" d="M343.018-180.511c-4.034,0-7.316,2.464-7.316,5.492c0,2.867,4.184,4.58,8.229,4.58
			c2.392,0,6.405-0.595,6.405-4.58C350.334-178.047,347.052-180.511,343.018-180.511z"/>
		<path fill="none" d="M344.893-266.415c0.008,0.043,0.294,1.295,5.265,2.385c3.405,0.746,7.284,1.04,9.216,1.165
			c2.381-5.04,9.412-40.432,12.476-55.856c0.134-0.673,0.262-1.318,0.386-1.944c-0.93,0.173-1.715,0.076-2.15-0.02c0,0,0,0-0.001,0
			c-1.478-0.324-2.893-1.23-4.035-2.558c-0.968,0.522-2.249,0.889-3.643,0.583c0,0,0,0-0.001,0
			c-1.182-0.259-2.271-0.948-3.252-2.056c-0.638,0.746-1.501,1.556-2.582,2.12c-1.042,0.545-2.133,0.874-3.168,0.975
			C349.507-302,344.53-268.926,344.893-266.415z"/>
		<path fill="none" d="M327.4-94.895c-2.361,0-3.199,2.072-3.199,3.846c0,1.774,0.838,3.846,3.199,3.846
			c2.12,0,3.845-1.725,3.845-3.846C331.245-93.169,329.52-94.895,327.4-94.895z"/>
		<path fill="none" d="M351.262-326.732c-0.026,0.309-0.014,0.547,0.014,0.755c0.756-3.451,1.466-6.345,2.089-8.409
			C352.256-332.711,351.557-330.203,351.262-326.732z"/>
		<path fill="none" d="M364.215-202.36c-3.427-1.028-6.076-3.191-7.877-5.105l-0.498,6.264
			C359.625-199.91,362.486-201.117,364.215-202.36z"/>
		<path fill="none" d="M365.262-334.289c-3.813-0.835-7.065-1.188-8.402-1.172c-0.682,1.329-1.653,5.164-2.751,10.388
			c0.37-0.063,0.747-0.17,1.111-0.36c1.636-0.854,2.588-2.632,2.597-2.651l1.238-2.389l1.38,2.377
			c0.838,1.433,1.742,2.303,2.617,2.494c1.194,0.262,2.246-0.771,2.256-0.782l1.344-1.345l1.006,1.613
			c0.81,1.321,1.958,2.256,3.069,2.499c0.875,0.192,1.606-0.085,2.216-0.601c0.697-3.49,1.172-5.812,1.376-6.614
			C373.996-331.338,371.836-332.849,365.262-334.289z"/>
		<path fill="none" d="M327.43-45.84c0,1.774,0.838,3.846,3.199,3.846c2.121,0,3.846-1.725,3.846-3.846
			c0-2.12-1.725-3.846-3.846-3.846C328.268-49.686,327.43-47.614,327.43-45.84z"/>
		<path fill="none" d="M328.911-64.984c1.323-1.657,1.052-4.082-0.604-5.405c-0.689-0.55-1.518-0.842-2.398-0.842
			c-1.178,0-2.274,0.527-3.008,1.446c-0.603,0.755-0.816,1.58-0.635,2.452c0.184,0.879,0.767,1.749,1.644,2.449
			c0.857,0.685,1.815,1.062,2.697,1.062C327.52-63.823,328.295-64.214,328.911-64.984z"/>
		<path fill="none" d="M404-372V0H0v-372H404z M20.659-296.264c3.82,0.054,9.03,0.127,10.071,0.555
			c0.813,1,1.972,6.535,2.744,10.216c2.028,9.681,2.957,13.068,5.403,13.068c0.903,0,3.639-0.001,15.221-24.145
			c0.26-0.045,0.684-0.089,1.349-0.089c2.278,0,5.761,0.484,9.449,0.996c3.993,0.555,8.123,1.128,11.123,1.128
			c1.889,0,4.178-0.189,5.128-1.667c1.686-2.623-1.881-6.603-9.844-14.442c-2.365-2.328-5.578-5.491-6.064-6.507
			c0.074-0.762,0.688-2.979,1.232-4.95c2.326-8.41,3.684-14.074,1.461-16.095c-0.497-0.452-1.164-0.682-1.981-0.682
			c-2.781,0-7.689,2.686-14.321,6.481c-2.471,1.414-5.53,3.164-6.311,3.374c-1.172-0.411-5.439-3.624-8.578-5.986
			c-7.315-5.507-10.713-7.92-12.559-7.92c-0.142,0-0.274,0.013-0.396,0.035c-2.501,0.455-2.87,4.77-2.837,19.375
			c0.008,3.586,0.016,7.295-0.185,8.233c-0.314,1.208-4.964,5.003-7.743,7.271c-4.581,3.739-7.416,6.121-7.958,7.883
			c-0.19,0.617-0.081,1.271,0.3,1.794C6.606-296.63,10.761-296.404,20.659-296.264z M103.307-176.603
			c0-29.472-17.236-48.515-43.91-48.515s-43.91,19.043-43.91,48.515c0,27.115,17.577,57.502,35.623,65.119
			c-2.397,1.901-4.964,4.368-6.005,5.39l-1.824,1.79l2.452,0.72c0.168,0.049,2.268,0.664,4.664,1.302
			c-3.082,7.489,1.098,18.83,4.298,25.49c3.219,6.7,8.879,11.628,12.296,18.147c2.713,5.175,1.936,12.401-0.36,17.555
			c-2.086,4.684-6.765,7.837-10.742,10.764c-1.54,1.134-0.046,3.739,1.515,2.591c6.262-4.608,11.687-9.089,13.552-16.955
			c1.94-8.181-0.419-15.07-5.413-21.462c-4.866-6.229-8.745-12.047-11.294-19.613c-1.557-4.62-3.02-11.234-0.845-15.75
			c1.313,0.314,2.514,0.57,3.314,0.668c0.711,0.087,1.861,0.117,3.069,0.117c2.142,0,4.466-0.091,4.852-0.107l1.54-0.063
			l-0.104-1.538c-0.042-0.613-0.382-4.737-2.012-8.05c7.265-2.401,15.856-9.952,23.483-20.892
			C97.562-145.75,103.307-162.232,103.307-176.603z M182.799-97.454c-5.498-4.528-11.739-4.973-17.119-1.217
			c-4.644,3.24-7.741,8.948-8.089,14.093c-4.165-3.064-10.398-4.355-15.628-2.842c-5.961,1.724-9.344,6.761-9.281,13.819
			c0.191,21.252,40.134,23.584,41.834,23.673l0.02-0.376l0.366,0.265C175.901-51.417,199.205-83.944,182.799-97.454z
			 M161.106-195.824c-0.077,5.355,0.051,10.715,0.193,16.068c0.188,7.072,0.458,14.144,0.804,21.21c0.094,1.925,3.095,1.935,3,0
			c-0.491-10.019-0.863-20.053-0.97-30.085c7.031,2.475,13.985-3.691,11.551-11.762c-1.098-3.64-12.292-10.271-13.949-4.531
			C160.917-202.086,161.148-198.735,161.106-195.824z M201.989-158.945c-1.773-9.871-4.914-19.668-7.661-29.297
			c-0.659-2.312-4.628-21.792-8.907-19.939c-1.841,0.797-1.653,5.14-1.791,6.668c-0.49,5.451-0.631,10.94-0.794,16.409
			c-0.153,5.153-0.251,10.309-0.324,15.464c-0.007,0.083-0.008,0.167-0.002,0.25c-0.05,3.615-0.094,7.23-0.112,10.844
			c-0.01,1.935,2.99,1.934,3,0c0.016-3.151,0.049-6.303,0.092-9.454c2.509,0,7.668,0,11.404,0c0.847,3.272,1.611,6.557,2.204,9.853
			C199.438-156.245,202.329-157.054,201.989-158.945z M202.666-245.547l2.608,2.422l-0.088-3.559
			c-0.653-26.314,4.536-47.803,7.944-58.911c8.634,16.135,9.976,54.921,9.989,55.325l0.159,4.958l2.615-4.215
			c2.975-4.795,6.831-15.432,8.529-20.317c5.116,5.333,14.801,11.006,15.265,11.276l2.157,1.257l0.097-2.495
			c0.695-17.897-6.478-34.417-11.002-42.957c9.749,6.366,21.441,12.143,29.935,12.142c1.876,0,3.597-0.282,5.105-0.901
			c5.208-2.139,8.357-5.05,9.359-8.653c1.489-5.35-1.907-10.918-5.425-15.659c-4.878-6.572-4.721-14.649-4.719-14.716
			c0.056-1.502,0.97-3.562,1.939-5.742c2.758-6.211,6.927-15.597-4.753-24.163c-15.962-11.706-44.935,18.524-50.656,24.787
			c-2.021-1.451-4.483-2.313-7.144-2.313c-3.286,0-6.269,1.311-8.489,3.431c-3.178-4.979-12.284-14.766-36.571-20.525
			c-6.38-1.513-10.679-1.001-13.14,1.567c-3.977,4.146-1.72,12.159,0.271,19.228c0.954,3.388,1.855,6.588,1.75,8.414
			c-0.183,3.167-1.795,6.95-3.502,10.954c-3.292,7.722-7.022,16.474-1.348,23.709c3.287,4.19,7.427,6.314,12.308,6.314
			c0.073,0,0.146,0,0.218-0.001c5.247-0.068,10.832-2.611,16.14-6.204c-4.994,16.524-4.729,41.591-4.713,42.753l0.058,4.355
			l2.636-3.467c2.167-2.85,7.887-9.727,10.737-13.136C194.149-253.507,202.28-245.905,202.666-245.547z M226.831-159.477
			c-5.911-11.419-11.822-22.838-17.733-34.258c3.315-0.583,6.6-1.772,8.276-4.9c1.507-2.814,0.049-6.055-2.047-8.069
			c-2.481-2.385-6.135-2.795-9.324-1.944c-2.372,0.633-2.613,2.579-2.747,4.747c-0.528,8.591,1.235,17.595,2.404,26.072
			c0.907,6.574,1.909,13.138,3.014,19.682c0.322,1.904,3.212,1.094,2.893-0.798c-1.742-10.311-3.285-20.671-4.446-31.064
			c-0.049-0.437-0.107-0.891-0.165-1.343c5.761,11.13,11.523,22.26,17.284,33.39C225.129-156.244,227.718-157.761,226.831-159.477z
			 M242.328-207.648c-5.499,0.881-11.398,0.349-16.93-0.054c-1.931-0.141-1.917,2.86,0,3c1.911,0.139,3.852,0.276,5.801,0.372
			c0.074,15.262,0.148,30.523,0.223,45.785c0.009,1.934,3.009,1.935,3,0c-0.074-15.226-0.148-30.452-0.223-45.678
			c3.003,0.053,6.003-0.063,8.926-0.532C245.032-205.061,244.22-207.952,242.328-207.648z M246.676-206.13
			c1.259,2.424,2.603,4.806,4.004,7.15c1.383,2.314,2.977,5.375,5.25,7.077c1.554,10.871,0.899,22.4,1.031,33.357
			c0.023,1.933,3.023,1.936,3,0c-0.133-11.1,0.438-22.696-1.084-33.725c3.343-3.961,7.153-9.319,6.785-14.617
			c-0.133-1.919-3.134-1.932-3,0c0.296,4.276-2.799,8.749-5.568,12.09c-1.926-1.757-3.325-4.843-4.526-6.882
			c-1.153-1.957-2.253-3.949-3.3-5.965C248.375-209.362,245.786-207.844,246.676-206.13z M336.387-104.056l4.847-1.565
			l-1.383-20.257l-1.465,0.271c-0.518,0.096-52.209,9.622-87.061,12.609l-1.423,0.122l3.038,19.06l5.924-0.355
			c0.88,4.136,3.98,18.609,7.287,32.937c8.1,35.097,9.361,35.126,10.794,35.159c0.071,0.003,1.775,0.075,4.716,0.075
			c0.001,0,0.001,0,0.001,0c10.727,0,37.917-1,58.716-10.28l0.85-0.377L336.387-104.056z M370.106-204.585l-2.651-0.204
			c-6.999-0.538-11.24-7.697-11.282-7.77l-1.264,0.73l-1.226-0.097l-0.067,0.845l-0.041,0.023c0.005,0.009,0.023,0.04,0.034,0.058
			l-2.447,30.788c-1.889-2.003-4.833-3.299-8.146-3.299c-5.688,0-10.316,3.81-10.316,8.492c0,4.923,5.785,7.58,11.229,7.58
			c5.801,0,9.405-2.904,9.405-7.58c0-0.126-0.016-0.25-0.023-0.375l0.475,0.038l1.81-22.774c1.203,0.34,2.347,0.489,3.425,0.489
			c4.721,0,8.153-2.84,9.54-4.78L370.106-204.585z M377.608-333.18c-1.718-2.926-5.647-4.001-9.195-4.778
			c-0.223-0.049-0.444-0.094-0.667-0.142c0.098-0.707,0.237-1.498,0.437-2.355c3.083,0.352,5.073-0.93,6.224-2.155
			c3.366-3.583,3.441-10.48,2.432-14.015c-0.745-2.606-2.665-10.264-2.684-10.34l-0.685-2.732l-1.885,2.094
			c-1.278,1.42-12.448,14.09-10.959,21.582c0.384,1.932,1.571,3.422,3.433,4.311c0.411,0.196,0.815,0.364,1.215,0.518
			c-0.209,0.885-0.357,1.707-0.467,2.457c-0.402-0.093-0.805-0.185-1.179-0.286c-0.62-0.168-1.292-0.348-1.996-0.501
			c-2.327-0.511-5.752-0.943-8.619,1.169c-2.726,2.009-4.289,5.785-4.778,11.545c-0.19,2.229,0.634,3.904,2.221,4.704
			c-4.143,20.16-9.118,52.958-8.514,56.225c0.41,2.219,2.817,3.737,7.575,4.78c4.001,0.876,8.526,1.158,10.23,1.264l0.191,0.012
			c2.15,0.137,3.229,0.206,14.854-58.313c0.331-1.666,0.643-3.234,0.927-4.66c0.859-1.008,1.664-2.439,2.287-4.5
			C378.696-329.576,378.562-331.555,377.608-333.18z"/>
		<path fill="none" d="M372.221-344.663c2.427-2.583,2.565-8.225,1.734-11.137c-0.468-1.641-1.363-5.119-1.996-7.611
			c-3.693,4.548-9.243,12.519-8.39,16.806c0.2,1.009,0.767,1.703,1.782,2.188c0.265,0.126,0.516,0.226,0.77,0.329
			c0.293-0.841,0.633-1.707,1.042-2.589l2.722,1.261c-0.317,0.685-0.591,1.359-0.829,2.018
			C370.329-343.371,371.39-343.778,372.221-344.663z"/>
		<path fill="#FF4A82" d="M221.723-335.669c5.721-6.263,34.694-36.492,50.656-24.787c11.681,8.566,7.512,17.952,4.753,24.163
			c-0.969,2.18-1.883,4.24-1.939,5.742c-0.002,0.067-0.16,8.144,4.719,14.716c3.518,4.741,6.914,10.309,5.425,15.659
			c-1.002,3.603-4.151,6.514-9.359,8.653c-1.508,0.619-3.229,0.901-5.105,0.901c-8.494,0-20.186-5.776-29.935-12.142
			c-1.898-3.583-3.333-5.772-3.521-6.053l-2.498,1.662c0.011,0.017,0.109,0.167,0.266,0.416c-5.455-3.996-9.716-7.794-11.556-10.148
			c0.869-0.943,1.593-2.019,2.144-3.196c8.194,0.215,45.908,1.979,56.851,16.268c-0.419-3.452-2.856-7.179-5.122-10.232
			c-5.516-7.432-5.319-16.234-5.308-16.605c0.078-2.091,1.106-4.407,2.196-6.859c2.787-6.275,5.946-13.388-3.786-20.526
			c-13.739-10.078-41.307,18.583-46.668,24.401C223.282-334.4,222.54-335.083,221.723-335.669z M281.769-299.406
			c-6.106-14.464-42.885-17.126-54.217-17.604c8.051,7.926,36.064,27.326,47.286,22.713
			C278.27-295.707,280.592-297.42,281.769-299.406z"/>
		<path fill="#FF4A82" d="M221.981-319.574c0.139-0.181,0.277-0.363,0.404-0.555l-0.721-0.006L221.981-319.574z"/>
		<path fill="#FF4A82" d="M183.881-295.776c-0.612,1.453-1.165,3.026-1.666,4.683c-5.308,3.593-10.894,6.136-16.14,6.204
			c-0.073,0.001-0.146,0.001-0.218,0.001c-4.881,0-9.021-2.124-12.308-6.314c-5.674-7.235-1.943-15.987,1.348-23.709
			c1.707-4.004,3.32-7.787,3.502-10.954c0.105-1.826-0.796-5.026-1.75-8.414c-1.991-7.069-4.248-15.082-0.271-19.228
			c2.461-2.568,6.76-3.081,13.14-1.567c24.287,5.759,33.394,15.546,36.571,20.525c-0.769,0.735-1.443,1.566-2.007,2.478
			c-2.248-4.078-10.165-14.134-35.257-20.083c-5.184-1.229-8.643-0.985-10.283,0.725c-2.789,2.908-0.691,10.354,0.994,16.338
			c1.069,3.795,1.992,7.072,1.857,9.4c-0.213,3.689-1.925,7.706-3.738,11.958c-2.773,6.506-5.63,13.209-2.972,18.725
			c12.384-19.295,43.152-22.573,49.875-23.065c0.678,0.945,1.48,1.79,2.387,2.51c-1.32,1.751-9.935,12.953-20.447,21.318
			c0.049-0.121,0.096-0.246,0.146-0.364L183.881-295.776z M202.574-314.866c-9.438,1.02-36.012,5.377-46.034,22.573
			c2.636,3.008,5.733,4.471,9.496,4.403C179.575-288.062,196.675-307.595,202.574-314.866z"/>
		<path fill="#FF4A82" d="M208.391-318.265c0.113,0.101,0.227,0.202,0.344,0.297l0.24-0.323L208.391-318.265z"/>
		<path fill="#FF4A82" d="M206.09-334.55c2.22-2.121,5.203-3.431,8.489-3.431c2.661,0,5.123,0.861,7.144,2.313
			c0.817,0.586,1.559,1.269,2.213,2.034c0.397,0.464,0.76,0.957,1.087,1.476c-0.915,0.754-1.459,1.288-1.541,1.371l2.148,2.118
			c0.014-0.014,0.267-0.27,0.717-0.671c0.18,0.553,0.318,1.123,0.421,1.706c-1.173,0.453-1.901,0.827-2.001,0.88l1.409,2.648
			c0.014-0.008,0.285-0.146,0.747-0.349c-0.119,1.555-0.52,3.028-1.15,4.374c-0.551,1.178-1.275,2.253-2.144,3.196
			c-2.041,2.215-4.855,3.683-8.008,3.951c0.207-0.54,0.33-0.839,0.341-0.867l-2.767-1.159c-0.018,0.042-0.286,0.696-0.724,1.884
			c-2.06-0.359-3.945-1.231-5.524-2.487c-0.907-0.72-1.708-1.565-2.387-2.51c-0.9-1.252-1.572-2.678-1.966-4.219
			c0.328,0.102,0.521,0.173,0.532,0.177l1.125-2.781c-0.094-0.038-0.81-0.313-2.06-0.62c0.004-0.639,0.067-1.263,0.163-1.876
			c0.104,0.105,0.158,0.167,0.163,0.173l2.352-1.862c-0.058-0.074-0.522-0.643-1.588-1.477c0.233-0.525,0.503-1.029,0.804-1.513
			C204.647-332.984,205.321-333.815,206.09-334.55z M205.186-325.432c0,2.855,1.245,5.415,3.205,7.167
			c0.113,0.101,0.227,0.202,0.344,0.297c1.605,1.302,3.635,2.086,5.843,2.086c3.007,0,5.682-1.45,7.403-3.692
			c0.139-0.181,0.277-0.363,0.404-0.555c1.001-1.518,1.587-3.342,1.587-5.303c0-5.266-4.214-9.55-9.394-9.55
			C209.399-334.981,205.186-330.697,205.186-325.432z"/>
		<path fill="#FF4A82" d="M182.154-335c14.261,2.274,19.286,6.687,20.199,7.606c0.104,0.105,0.158,0.167,0.163,0.173l2.352-1.862
			c-0.058-0.074-0.522-0.643-1.588-1.477c-2.534-1.981-8.494-5.465-20.652-7.403L182.154-335z"/>
		<path fill="#FF4A82" d="M182.045-324.968l0.69,2.92c10.878-2.572,17.957-0.833,19.858-0.246c0.328,0.102,0.521,0.173,0.532,0.177
			l1.125-2.781c-0.094-0.038-0.81-0.313-2.06-0.62C198.947-326.311,191.984-327.317,182.045-324.968z"/>
		<path fill="#FF4A82" d="M243-339.205c-8.361,0-15.079,4.657-17.977,7.045c-0.915,0.754-1.459,1.288-1.541,1.371l2.148,2.118
			c0.014-0.014,0.267-0.27,0.717-0.671c2.064-1.841,8.442-6.863,16.652-6.863V-339.205z"/>
		<path fill="#FF4A82" d="M242.608-325.453l0.977-2.837c-6.999-2.409-13.616-0.58-16.816,0.654c-1.173,0.453-1.901,0.827-2.001,0.88
			l1.409,2.648c0.014-0.008,0.285-0.146,0.747-0.349C229.092-325.404,235.73-327.822,242.608-325.453z"/>
		<path fill="#FF4A82" d="M234.919-307.154c0.011,0.017,0.109,0.167,0.266,0.416c1.905,3.025,13.682,22.607,13.799,44.228
			c-3.73-2.341-11.134-7.276-13.902-11.193l-1.713-2.425l-0.936,2.818c-0.042,0.128-3.387,10.169-6.595,17.311
			c-0.74-12.117-3.263-40.374-11.092-52.786l-0.755,0.476c-0.27,0.821-0.558,1.726-0.862,2.715
			c8.634,16.135,9.976,54.921,9.989,55.325l0.159,4.958l2.615-4.215c2.975-4.795,6.831-15.432,8.529-20.317
			c5.116,5.333,14.801,11.006,15.265,11.276l2.157,1.257l0.097-2.495c0.695-17.897-6.478-34.417-11.002-42.957
			c-1.898-3.583-3.333-5.772-3.521-6.053L234.919-307.154z"/>
		<path fill="#FF4A82" d="M205.186-246.683c-0.653-26.314,4.536-47.803,7.944-58.911c0.304-0.99,0.592-1.895,0.862-2.715
			c0.712-2.166,1.289-3.736,1.63-4.626c0.207-0.54,0.33-0.839,0.341-0.867l-2.767-1.159c-0.018,0.042-0.286,0.696-0.724,1.884
			c-2.479,6.735-10.49,30.992-10.34,62.749c-3.088-3.252-8.003-8.974-9.235-13.594l-0.742-2.786l-1.855,2.207
			c-0.302,0.358-5.899,7.019-9.766,11.795c0.165-8.94,1.087-29.599,5.967-41.541c0.049-0.121,0.096-0.246,0.146-0.364l-2.765-1.165
			c-0.612,1.453-1.165,3.026-1.666,4.683c-4.994,16.524-4.729,41.591-4.713,42.753l0.058,4.355l2.636-3.467
			c2.167-2.85,7.887-9.727,10.737-13.136c3.215,7.081,11.346,14.683,11.731,15.041l2.608,2.422L205.186-246.683z"/>
		<path fill="#FFA02E" d="M335.403-103.738l0.984-0.317l4.843,67.398l-0.85,0.377C319.58-27,292.39-26,281.664-26c0,0,0,0-0.001,0
			c-2.941,0-4.646-0.072-4.716-0.075c-1.433-0.033-2.694-0.062-10.794-35.159c-3.306-14.327-6.407-28.801-7.287-32.937l2.532-0.152
			l-0.058-0.964c0.497,0.125,0.997,0.213,1.49,0.213c1.682,0,3.212-0.745,4.32-2.094c14.911-0.621,28.65-2.176,39.789-3.824
			c1.12,0.689,2.339,1.075,3.521,1.075c1.711,0,3.266-0.767,4.378-2.159c0.049-0.061,0.089-0.126,0.135-0.188
			c11.704-1.977,19.073-3.769,19.642-3.909L335.403-103.738z M338.448-38.33l-4.665-64.919c-6.992,1.611-36.975,8.059-72.237,8.925
			c5.112,24.104,13.561,61.285,16.022,65.617c0.718,0.022,2.135,0.057,4.094,0.057C292.071-28.651,318.224-29.604,338.448-38.33z"/>
		<path fill="#FFA02E" d="M258.31-96.798l0.067-0.004c-0.029-0.023-0.056-0.048-0.083-0.072L258.31-96.798z"/>
		<path fill="#FFA02E" d="M339.851-125.877l-1.465,0.271c-0.518,0.096-52.209,9.622-87.061,12.609l-1.423,0.122l3.038,19.06
			l5.924-0.355l2.532-0.152l-0.058-0.964c-0.996-0.251-1.98-0.724-2.865-1.43c-0.034-0.027-0.064-0.057-0.098-0.084l-0.067,0.004
			l-3.125,0.188l-2.209-13.866c8.626-0.772,18.196-1.922,27.727-3.214c1.233-1.382,2.974-2.175,4.842-2.175
			c1.222,0,2.415,0.368,3.446,1.015c15.226-2.193,29.585-4.584,38.956-6.206c0.966-1.936,2.801-3.134,5.105-3.134
			c1.576,0,3.021,0.564,4.148,1.5c0.064-0.012,0.145-0.026,0.206-0.037l0.017,0.239c1.305,1.19,2.131,2.898,2.131,4.799
			c0,1.585-0.572,3.039-1.519,4.168l0.411,6.011l-3.857,1.246l0.029,0.09l0.787,2.437l0.984-0.317l4.847-1.565L339.851-125.877z"/>
		<path fill="#FFA02E" d="M333.901-91.049c0,3.585-2.917,6.501-6.501,6.501c-3.447,0-5.854-2.673-5.854-6.501
			c0-3.828,2.407-6.501,5.854-6.501C330.984-97.55,333.901-94.633,333.901-91.049z M331.245-91.049c0-2.12-1.725-3.846-3.845-3.846
			c-2.361,0-3.199,2.072-3.199,3.846c0,1.774,0.838,3.846,3.199,3.846C329.52-87.203,331.245-88.928,331.245-91.049z"/>
		<path fill="#FFA02E" d="M327.196-117.689c0-1.27,0.27-2.407,0.749-3.367c0.966-1.936,2.801-3.134,5.105-3.134
			c1.576,0,3.021,0.564,4.148,1.5c0.077,0.064,0.148,0.135,0.223,0.202c1.305,1.19,2.131,2.898,2.131,4.799
			c0,1.585-0.572,3.039-1.519,4.168c-1.193,1.424-2.983,2.333-4.983,2.333C329.603-111.188,327.196-113.862,327.196-117.689z
			 M336.896-117.689c0-2.121-1.726-3.846-3.846-3.846c-2.361,0-3.199,2.071-3.199,3.846c0,1.774,0.838,3.845,3.199,3.845
			C335.171-113.844,336.896-115.569,336.896-117.689z"/>
		<path fill="#FFA02E" d="M291.159-34.155c-1.058,1.771-2.826,2.785-4.852,2.785c-1.244,0-2.535-0.378-3.731-1.093
			c-1.493-0.892-2.593-2.168-3.1-3.596c-0.559-1.575-0.374-3.267,0.521-4.766c1.167-1.954,3.308-3.167,5.586-3.167
			c1.169,0,2.321,0.318,3.329,0.921C291.989-41.231,292.997-37.232,291.159-34.155z M287.55-40.791
			c-0.596-0.356-1.277-0.545-1.967-0.545c-1.369,0-2.605,0.701-3.307,1.874c-0.496,0.83-0.597,1.676-0.298,2.515
			c0.3,0.846,0.996,1.628,1.959,2.204c0.786,0.47,1.605,0.717,2.37,0.717c0.767,0,1.835-0.258,2.572-1.492
			C289.967-37.337,289.37-39.703,287.55-40.791z"/>
		<path fill="#FFA02E" d="M277.951-88.627c0-3.828,2.407-6.501,5.854-6.501c3.585,0,6.501,2.917,6.501,6.501
			c0,3.585-2.916,6.501-6.501,6.501C280.358-82.126,277.951-84.799,277.951-88.627z M280.606-88.627
			c0,1.774,0.838,3.846,3.199,3.846c2.121,0,3.846-1.725,3.846-3.846c0-2.12-1.725-3.845-3.846-3.845
			C281.444-92.472,280.606-90.401,280.606-88.627z"/>
		<path fill="#FFA02E" d="M281.383-56.292c-3.447,0-5.855-2.674-5.855-6.501c0-3.828,2.408-6.501,5.855-6.501
			c3.584,0,6.501,2.916,6.501,6.501S284.968-56.292,281.383-56.292z M281.383-58.947c2.121,0,3.846-1.725,3.846-3.846
			s-1.725-3.846-3.846-3.846c-2.361,0-3.199,2.071-3.199,3.846C278.184-61.019,279.022-58.947,281.383-58.947z"/>
		<path fill="#FFA02E" d="M330.629-52.341c3.584,0,6.501,2.917,6.501,6.501c0,3.585-2.917,6.501-6.501,6.501
			c-3.447,0-5.854-2.673-5.854-6.501C324.774-49.667,327.182-52.341,330.629-52.341z M330.629-49.686
			c-2.361,0-3.199,2.072-3.199,3.846c0,1.774,0.838,3.846,3.199,3.846c2.121,0,3.846-1.725,3.846-3.846
			C334.475-47.96,332.75-49.686,330.629-49.686z"/>
		<path fill="#FFA02E" d="M302.069-72.499c-1.358-1.084-2.276-2.499-2.585-3.98c-0.341-1.636,0.07-3.288,1.16-4.651
			c1.24-1.552,3.092-2.443,5.083-2.443c1.467,0,2.907,0.505,4.055,1.422c2.8,2.237,3.258,6.336,1.02,9.137
			c-1.112,1.392-2.667,2.159-4.378,2.159C304.942-70.855,303.395-71.438,302.069-72.499z M302.083-77.021
			c0.183,0.878,0.767,1.748,1.644,2.448c0.857,0.685,1.815,1.062,2.697,1.062c0.913,0,1.688-0.391,2.304-1.161
			c1.324-1.657,1.053-4.082-0.604-5.405c-0.689-0.551-1.518-0.841-2.397-0.841c-1.178,0-2.274,0.526-3.008,1.445
			C302.115-78.718,301.901-77.893,302.083-77.021z"/>
		<path fill="#FFA02E" d="M314.974-102.266c-0.046,0.063-0.086,0.127-0.135,0.188c-1.113,1.393-2.667,2.159-4.378,2.159
			c-1.183,0-2.401-0.386-3.521-1.075c-0.283-0.174-0.565-0.354-0.833-0.568c-1.358-1.085-2.276-2.499-2.585-3.98
			c-0.341-1.636,0.07-3.288,1.16-4.651c1.24-1.553,3.093-2.444,5.083-2.444c1.467,0,2.907,0.505,4.056,1.422
			C316.557-109.026,317.048-105.06,314.974-102.266z M306.12-106.084c0.183,0.878,0.767,1.748,1.644,2.448
			c0.857,0.685,1.815,1.063,2.697,1.063c0.913,0,1.688-0.391,2.304-1.162c1.323-1.657,1.053-4.082-0.604-5.405
			c-0.689-0.551-1.518-0.841-2.398-0.841c-1.178,0-2.274,0.527-3.008,1.445C306.152-107.781,305.938-106.956,306.12-106.084z"/>
		<path fill="#FFA02E" d="M262.83-95.074c-0.494,0-0.993-0.087-1.49-0.213c-0.996-0.251-1.98-0.724-2.865-1.43
			c-0.034-0.027-0.064-0.057-0.098-0.084c-0.029-0.023-0.056-0.048-0.083-0.072c-1.256-1.063-2.109-2.411-2.404-3.824
			c-0.342-1.636,0.07-3.288,1.159-4.651c1.241-1.553,3.093-2.443,5.083-2.443c1.467,0,2.908,0.505,4.055,1.422
			c2.8,2.237,3.258,6.337,1.021,9.137c-0.019,0.023-0.039,0.042-0.058,0.065C266.042-95.819,264.512-95.074,262.83-95.074z
			 M258.489-101.241c0.183,0.879,0.767,1.749,1.644,2.449c0.857,0.685,1.815,1.063,2.698,1.063c0.913,0,1.688-0.391,2.304-1.161
			c1.323-1.657,1.052-4.082-0.604-5.405c-0.689-0.55-1.518-0.842-2.398-0.842c-1.178,0-2.274,0.527-3.008,1.446
			C258.521-102.937,258.307-102.112,258.489-101.241z"/>
		<path fill="#FFA02E" d="M280.461-113.422c0.076-0.095,0.16-0.179,0.24-0.268c1.233-1.382,2.974-2.175,4.842-2.175
			c1.222,0,2.415,0.368,3.446,1.015c0.207,0.13,0.417,0.254,0.609,0.407c2.8,2.237,3.258,6.336,1.021,9.137
			c-1.112,1.393-2.667,2.159-4.378,2.159c-1.482,0-3.029-0.583-4.355-1.643c-1.358-1.085-2.276-2.499-2.585-3.981
			C278.96-110.407,279.372-112.059,280.461-113.422z M287.941-112.369c-0.689-0.55-1.518-0.841-2.398-0.841
			c-1.178,0-2.274,0.527-3.008,1.446c-0.603,0.755-0.817,1.58-0.635,2.451c0.183,0.879,0.767,1.749,1.644,2.449
			c0.857,0.685,1.815,1.062,2.697,1.062c0.913,0,1.688-0.391,2.303-1.161C289.869-108.621,289.598-111.045,287.941-112.369z"/>
		<path fill="#FFA02E" d="M326.606-61.167c-1.482,0-3.029-0.583-4.355-1.643c-1.358-1.084-2.276-2.499-2.585-3.981
			c-0.341-1.636,0.071-3.288,1.16-4.651c1.24-1.553,3.093-2.444,5.083-2.444c1.467,0,2.907,0.505,4.055,1.422
			c2.8,2.237,3.258,6.336,1.021,9.137C329.873-61.935,328.318-61.167,326.606-61.167z M323.909-64.885
			c0.857,0.685,1.815,1.062,2.697,1.062c0.914,0,1.688-0.391,2.304-1.161c1.323-1.657,1.052-4.082-0.604-5.405
			c-0.689-0.55-1.518-0.842-2.398-0.842c-1.178,0-2.274,0.527-3.008,1.446c-0.603,0.755-0.816,1.58-0.635,2.452
			C322.449-66.455,323.032-65.585,323.909-64.885z"/>
		<path fill="#FFA02E" d="M313.224-46.374c-1.113,1.393-2.667,2.159-4.378,2.159c-1.482,0-3.029-0.583-4.354-1.643
			c-1.358-1.085-2.276-2.499-2.585-3.98c-0.341-1.636,0.071-3.288,1.16-4.651c1.24-1.553,3.093-2.443,5.083-2.443
			c1.467,0,2.907,0.505,4.055,1.422C315.004-53.273,315.461-49.174,313.224-46.374z M310.546-53.436
			c-0.688-0.55-1.518-0.841-2.397-0.841c-1.178,0-2.274,0.527-3.008,1.446c-0.603,0.755-0.817,1.58-0.635,2.451
			c0.184,0.879,0.767,1.749,1.644,2.448c0.857,0.685,1.815,1.063,2.697,1.063c0.913,0,1.688-0.391,2.304-1.161
			C312.473-49.688,312.203-52.112,310.546-53.436z"/>
		<path fill="#FF8AAE" d="M20.659-296.264c-9.897-0.14-14.052-0.366-15.294-2.074c-0.381-0.523-0.49-1.177-0.3-1.794
			c0.542-1.763,3.377-4.144,7.958-7.883c2.778-2.268,7.428-6.063,7.743-7.271c0.201-0.938,0.192-4.647,0.185-8.233
			c-0.033-14.605,0.335-18.92,2.837-19.375c0.122-0.022,0.254-0.035,0.396-0.035c1.845,0,5.244,2.414,12.559,7.92
			c3.139,2.362,7.406,5.575,8.578,5.986c0.781-0.209,3.84-1.96,6.311-3.374c6.631-3.795,11.54-6.481,14.321-6.481
			c0.817,0,1.484,0.229,1.981,0.682c2.223,2.021,0.864,7.685-1.461,16.095c-0.545,1.971-1.158,4.188-1.232,4.95
			c0.486,1.016,3.699,4.179,6.064,6.507c7.963,7.839,11.53,11.819,9.844,14.442c-0.95,1.478-3.24,1.667-5.128,1.667
			c-3,0-7.129-0.573-11.123-1.128c-3.688-0.512-7.17-0.996-9.449-0.996c-0.665,0-1.088,0.043-1.349,0.089
			c-11.582,24.144-14.317,24.145-15.221,24.145c-2.447,0-3.375-3.387-5.403-13.068c-0.771-3.682-1.931-9.216-2.744-10.216
			C29.688-296.137,24.479-296.21,20.659-296.264z M8.41-299.957c2.29,0.552,8.426,0.638,12.291,0.693
			c7.299,0.103,10.399,0.226,11.684,1.043c1.56,0.993,2.384,4.281,4.024,12.112c0.729,3.478,1.784,8.515,2.644,10.305
			c2.283-2.44,8.075-13.142,12.614-22.638l0.213-0.444l0.435-0.232c0.7-0.374,1.666-0.54,3.131-0.54
			c2.485,0,6.068,0.498,9.861,1.024c3.893,0.541,7.917,1.099,10.71,1.099c1.544,0,2.23-0.176,2.505-0.284
			c-0.406-1.907-6.173-7.585-9.326-10.688c-5.265-5.183-6.966-6.987-6.966-8.514c0-0.961,0.462-2.739,1.348-5.942
			C64.521-326.368,66.69-334,65.952-336c0,0-0.001,0-0.001,0c-2.198,0-8.597,3.723-12.831,6.146
			c-4.898,2.803-6.714,3.814-7.859,3.814c-1.359,0-3.422-1.392-10.324-6.587c-3.387-2.549-8.329-6.263-10.269-7.132
			c-0.749,2.504-0.729,11.317-0.718,16.229c0.011,4.864,0.004,7.677-0.252,8.875c-0.444,2.074-3.625,4.758-8.778,8.964
			C12.732-303.907,9.618-301.364,8.41-299.957z"/>
		<path fill="#9AE247" d="M350.796-175.594l2.516,0.2c0.007,0.125,0.023,0.249,0.023,0.375c0,4.676-3.604,7.58-9.405,7.58
			c-5.443,0-11.229-2.657-11.229-7.58c0-4.683,4.628-8.492,10.316-8.492c3.312,0,6.256,1.296,8.146,3.299L350.796-175.594z
			 M350.334-175.019c0-3.028-3.282-5.492-7.317-5.492c-4.034,0-7.316,2.464-7.316,5.492c0,2.867,4.184,4.58,8.229,4.58
			C346.322-170.439,350.334-171.034,350.334-175.019z"/>
		<polygon fill="#9AE247" points="353.684,-211.925 353.616,-211.081 354.909,-211.828 		"/>
		<path fill="#9AE247" d="M355.414-201.35c0.145,0.056,0.285,0.1,0.427,0.148l0.498-6.264c-1.626-1.728-2.552-3.236-2.728-3.535
			l-2.447,30.788l-0.367,4.618l2.516,0.2l0.475,0.038l1.81-22.774c-0.413-0.117-0.833-0.255-1.26-0.419L355.414-201.35z"/>
		<path fill="#9AE247" d="M356.173-212.559l-1.264,0.73l-1.293,0.748l-0.041,0.023c0.005,0.009,0.023,0.04,0.034,0.058
			c0.176,0.298,1.102,1.807,2.728,3.535c1.802,1.914,4.451,4.077,7.877,5.105c-1.729,1.243-4.59,2.45-8.375,1.159
			c-0.142-0.049-0.282-0.093-0.427-0.148l-1.077,2.8c0.427,0.164,0.847,0.302,1.26,0.419c1.203,0.34,2.347,0.489,3.425,0.489
			c4.721,0,8.153-2.84,9.54-4.78l1.545-2.164l-2.651-0.204C360.456-205.327,356.215-212.486,356.173-212.559z"/>
		<path fill="#FF6E6E" d="M182.799-97.454c-5.498-4.528-11.739-4.973-17.119-1.217c-4.644,3.24-7.741,8.948-8.089,14.093
			c1.328,0.977,2.45,2.129,3.256,3.434l-1.276,0.789l1.416-0.496c-1.603-4.58,1.452-11.901,6.409-15.36
			c3.011-2.101,7.796-3.621,13.495,1.073c12.64,10.41-3.603,36.221-7.573,42.112c0.816,0.07,1.313,0.1,1.354,0.102l-0.137,2.62
			l0.366,0.265C175.901-51.417,199.205-83.944,182.799-97.454z"/>
		<path fill="#FF6E6E" d="M173.318-53.026c-6.829-0.584-37.489-4.125-37.637-20.602c-0.065-7.299,3.833-9.961,7.115-10.911
			c5.518-1.594,12.903,0.776,15.499,4.972l1.276-0.789l1.276-0.789c-0.807-1.304-1.929-2.457-3.256-3.434
			c-4.165-3.064-10.398-4.355-15.628-2.842c-5.961,1.724-9.344,6.761-9.281,13.819c0.191,21.252,40.134,23.584,41.834,23.673
			l0.02-0.376l0.137-2.62C174.631-52.927,174.135-52.957,173.318-53.026z"/>
		<path fill="#FFCE31" d="M372.237-320.666c-0.125,0.626-0.252,1.271-0.386,1.944c-3.064,15.425-10.095,50.816-12.476,55.856
			c-1.932-0.125-5.811-0.419-9.216-1.165c-4.971-1.09-5.257-2.342-5.265-2.385c-0.363-2.511,4.614-35.585,8.512-55.206
			c-0.658,0.064-1.292,0.037-1.876-0.09h0c-0.394-0.086-0.743-0.228-1.072-0.394c-4.143,20.16-9.118,52.958-8.514,56.225
			c0.41,2.219,2.817,3.737,7.575,4.78c4.001,0.876,8.526,1.158,10.23,1.264l0.191,0.012c2.15,0.137,3.229,0.206,14.854-58.313
			c0.331-1.666,0.643-3.234,0.927-4.66C374.561-321.438,373.304-320.865,372.237-320.666z"/>
		<path fill="#FFCE31" d="M364.535-334.595c-0.003-0.059-0.022-0.459-0.003-1.123c-0.586-0.13-1.153-0.264-1.686-0.409
			c-0.577-0.155-1.201-0.323-1.855-0.467c-2.831-0.62-4.742-0.418-6.197,0.654c-0.538,0.396-1.01,0.92-1.429,1.553
			c-0.623,2.064-1.333,4.958-2.089,8.409c0.121,0.917,0.674,0.977,0.963,0.977c0.002,0,0.004,0,0.006,0
			c0.512,0,1.176,0.044,1.864-0.073c1.098-5.224,2.069-9.059,2.751-10.388c1.337-0.017,4.59,0.337,8.402,1.172
			c6.574,1.44,8.733,2.951,9.058,3.457c-0.204,0.802-0.679,3.124-1.376,6.614c1.113-0.944,1.813-2.7,2.191-3.949
			c0.444-1.465,0.406-2.607-0.114-3.493c-1.08-1.841-4.281-2.724-7.497-3.42c0.001,0.196,0.006,0.314,0.006,0.322L364.535-334.595z"
			/>
		<path fill="#FFCE31" d="M368.414-337.958c-0.223-0.049-0.444-0.094-0.667-0.142c-0.201,1.444-0.226,2.517-0.223,3.019
			c3.216,0.697,6.417,1.58,7.497,3.42c0.521,0.886,0.558,2.028,0.114,3.493c-0.377,1.249-1.078,3.005-2.191,3.949
			c-0.61,0.516-1.341,0.793-2.216,0.601c-1.112-0.243-2.259-1.178-3.069-2.499l-1.006-1.613l-1.344,1.345
			c-0.011,0.011-1.062,1.044-2.256,0.782c-0.875-0.19-1.778-1.061-2.617-2.494l-1.38-2.377l-1.238,2.389
			c-0.009,0.019-0.961,1.796-2.597,2.651c-0.364,0.19-0.741,0.297-1.111,0.36c-0.688,0.117-1.352,0.073-1.864,0.073
			c-0.002,0-0.004,0-0.006,0c-0.29,0-0.842-0.061-0.963-0.977c-0.027-0.208-0.04-0.447-0.014-0.755
			c0.294-3.47,0.994-5.979,2.103-7.653c0.419-0.633,0.891-1.156,1.429-1.553c1.455-1.072,3.366-1.274,6.197-0.654
			c0.654,0.144,1.278,0.312,1.855,0.467c0.533,0.145,1.1,0.278,1.686,0.409c0.021-0.722,0.092-1.764,0.276-3.018
			c-0.402-0.093-0.805-0.185-1.179-0.286c-0.62-0.168-1.292-0.348-1.996-0.501c-2.327-0.511-5.752-0.943-8.619,1.169
			c-2.726,2.009-4.289,5.785-4.778,11.545c-0.19,2.229,0.634,3.904,2.221,4.704c0.329,0.166,0.679,0.308,1.072,0.394h0
			c0.583,0.127,1.218,0.154,1.876,0.09c1.035-0.101,2.126-0.43,3.168-0.975c1.081-0.564,1.944-1.374,2.582-2.12
			c0.981,1.107,2.07,1.797,3.252,2.056c0,0,0.001,0,0.001,0c1.394,0.306,2.674-0.061,3.643-0.583
			c1.142,1.327,2.557,2.233,4.035,2.558c0,0,0.001,0,0.001,0c0.435,0.095,1.22,0.193,2.15,0.02c1.067-0.199,2.324-0.771,3.483-2.132
			c0.859-1.008,1.664-2.439,2.287-4.5c0.689-2.278,0.555-4.257-0.398-5.882C375.891-336.105,371.961-337.181,368.414-337.958z"/>
		<path fill="#FFCE31" d="M365.352-344.417c-1.016-0.485-1.582-1.18-1.782-2.188c-0.854-4.287,4.696-12.258,8.39-16.806
			c0.633,2.492,1.527,5.971,1.996,7.611c0.832,2.912,0.693,8.554-1.734,11.137c-0.831,0.885-1.892,1.292-3.165,1.265
			c-0.373,1.033-0.657,2.024-0.872,2.943c3.083,0.352,5.073-0.93,6.224-2.155c3.366-3.583,3.441-10.48,2.432-14.015
			c-0.745-2.606-2.665-10.264-2.684-10.34l-0.685-2.732l-1.885,2.094c-1.278,1.42-12.448,14.09-10.959,21.582
			c0.384,1.932,1.571,3.422,3.433,4.311c0.411,0.196,0.815,0.364,1.215,0.518c0.214-0.911,0.494-1.885,0.846-2.896
			C365.868-344.191,365.616-344.291,365.352-344.417z"/>
		<path fill="#FFCE31" d="M364.532-335.717c-0.019,0.664,0,1.063,0.003,1.123l2.995-0.164c0-0.007-0.005-0.125-0.006-0.322
			c-0.002-0.502,0.022-1.575,0.223-3.019c0.098-0.707,0.237-1.498,0.437-2.355c0.215-0.919,0.499-1.911,0.872-2.943
			c0.238-0.659,0.512-1.333,0.829-2.018l-2.722-1.261c-0.409,0.882-0.749,1.748-1.042,2.589c-0.352,1.011-0.632,1.985-0.846,2.896
			c-0.209,0.885-0.357,1.707-0.467,2.457C364.624-337.481,364.553-336.439,364.532-335.717z"/>
		<path fill="#C156E8" d="M161.106-195.824c0.042-2.912-0.189-6.263,0.629-9.1c1.657-5.74,12.852,0.891,13.949,4.531
			c2.434,8.071-4.521,14.237-11.551,11.762c0.107,10.032,0.479,20.066,0.97,30.085c0.095,1.935-2.906,1.925-3,0
			c-0.346-7.066-0.616-14.138-0.804-21.21C161.158-185.109,161.029-190.468,161.106-195.824z M164.597-203.999
			C164.74-204.203,164.705-204.481,164.597-203.999L164.597-203.999z M164.091-192.371c0,0.151,0.004,0.302,0.005,0.454
			c3.569,1.867,7.671,1.109,8.732-3.589c1.065-4.719-2.128-7.446-6.506-8.167c-0.573-0.094-1.17-0.175-1.757-0.172
			c-0.002,0.01-0.003,0.014-0.005,0.024c-0.177,0.969-0.247,1.956-0.298,2.938C164.112-198.049,164.081-195.209,164.091-192.371z"/>
		<path fill="#C156E8" d="M194.328-188.242c-0.659-2.312-4.628-21.792-8.907-19.939c-1.841,0.797-1.653,5.14-1.791,6.668
			c-0.49,5.451-0.631,10.94-0.794,16.409c-0.153,5.153-0.251,10.309-0.324,15.464c0.059-0.7,0.551-1.359,1.488-1.359
			c0.497,0,1.01,0,1.536,0c0.043-2.725,0.089-5.449,0.148-8.174c0.167-7.629-0.24-15.896,0.964-23.563
			c0.453,1.219,0.873,2.452,1.279,3.685c1.699,5.156,3.176,10.388,4.64,15.614c1.153,4.117,2.388,8.265,3.527,12.438
			c0.634,0,1.269,0,1.905,0c2,0,2,3,0,3c-0.35,0-0.723,0-1.107,0c0.847,3.272,1.611,6.557,2.204,9.853
			c0.341,1.902,3.232,1.093,2.893-0.798C200.216-168.816,197.076-178.613,194.328-188.242z"/>
		<path fill="#C156E8" d="M183.114-168c-0.059,0,0.886,0,0.886,0c-0.951,0-1.444-0.679-1.491-1.39
			c-0.05,3.615-0.094,7.23-0.112,10.844c-0.01,1.935,2.99,1.934,3,0c0.016-3.151,0.049-6.303,0.092-9.454c-0.924,0-1.489,0-1.489,0
			S183.055-168,183.114-168z"/>
		
			<line fill="none" stroke="#C156E8" stroke-width="0" stroke-linecap="round" stroke-linejoin="round" x1="184" y1="-168" x2="183" y2="-168"/>
		<path fill="#C156E8" d="M198-171c-0.636,0-1.271,0-1.905,0c-3.73,0-7.39,0-10.559,0c-0.526,0-1.039,0-1.536,0
			c-0.937,0-1.429,0.659-1.488,1.359c-0.007,0.083-0.008,0.167-0.002,0.25c0.046,0.711,0.54,1.39,1.491,1.39c0,0,0.565,0,1.489,0
			c2.509,0,7.668,0,11.404,0c0.384,0,0.757,0,1.107,0C200-168,200-171,198-171z"/>
		<path fill="#C156E8" d="M226.831-159.477c0.888,1.715-1.701,3.233-2.591,1.515c-5.761-11.13-11.523-22.26-17.284-33.39
			c0.057,0.452,0.116,0.906,0.165,1.343c1.161,10.393,2.704,20.753,4.446,31.064c0.32,1.892-2.571,2.702-2.893,0.798
			c-1.105-6.543-2.107-13.108-3.014-19.682c-1.169-8.477-2.932-17.481-2.404-26.072c0.133-2.168,0.375-4.114,2.747-4.747
			c3.189-0.851,6.843-0.441,9.324,1.944c2.096,2.015,3.554,5.255,2.047,8.069c-1.676,3.128-4.961,4.318-8.276,4.9
			C215.008-182.315,220.919-170.896,226.831-159.477z M206.335-196.292c0.146-0.055,0.3-0.099,0.466-0.118
			c3.057-0.351,10.782-2.304,7.475-6.965c-0.88-1.241-7.25-4.71-7.817-2.185C205.815-202.691,205.983-199.458,206.335-196.292z"/>
		<path fill="#C156E8" d="M231.422-158.546c0.009,1.934,3.009,1.935,3,0c-0.074-15.226-0.148-30.452-0.223-45.678
			c-1.001-0.018-2.001-0.058-3-0.107C231.273-189.069,231.347-173.808,231.422-158.546z"/>
		<path fill="#C156E8" d="M242.328-207.648c-5.499,0.881-11.398,0.349-16.93-0.054c-1.931-0.141-1.917,2.86,0,3
			c1.911,0.139,3.852,0.276,5.801,0.372c0.999,0.049,2,0.089,3,0.107c3.003,0.053,6.003-0.063,8.926-0.532
			C245.032-205.061,244.22-207.952,242.328-207.648z"/>
		<path fill="#C156E8" d="M255.929-191.903c-0.021-0.148-0.033-0.299-0.055-0.447c-0.282-1.892,2.609-2.706,2.893-0.798
			c0.043,0.291,0.068,0.586,0.109,0.877c3.343-3.961,7.153-9.319,6.785-14.617c-0.133-1.919-3.134-1.932-3,0
			c0.296,4.276-2.799,8.749-5.568,12.09c-1.926-1.757-3.325-4.843-4.526-6.882c-1.153-1.957-2.253-3.949-3.3-5.965
			c-0.892-1.717-3.481-0.2-2.591,1.515c1.259,2.424,2.603,4.806,4.004,7.15C252.063-196.666,253.657-193.605,255.929-191.903z"/>
		<path fill="#C156E8" d="M255.874-192.35c0.022,0.148,0.034,0.299,0.055,0.447c1.554,10.871,0.899,22.4,1.031,33.357
			c0.023,1.933,3.023,1.936,3,0c-0.133-11.1,0.438-22.696-1.084-33.725c-0.041-0.292-0.065-0.587-0.109-0.877
			C258.483-195.056,255.592-194.242,255.874-192.35z"/>
		<path fill="#2EABFF" d="M54.695-76.792c3.219,6.7,8.879,11.628,12.296,18.147c2.713,5.175,1.936,12.401-0.36,17.555
			c-2.086,4.684-6.765,7.837-10.742,10.764c-1.54,1.134-0.046,3.739,1.515,2.591c6.262-4.608,11.687-9.089,13.552-16.955
			c1.94-8.181-0.419-15.07-5.413-21.462c-4.866-6.229-8.745-12.047-11.294-19.613c-1.557-4.62-3.02-11.234-0.845-15.75
			c-0.978-0.234-2.015-0.5-3.006-0.765C47.315-94.793,51.495-83.452,54.695-76.792z"/>
		<path fill="#FFFFFF" d="M57.085-103.826c1.098,0.135,3.85,0.097,5.819,0.044c-0.269-1.788-0.838-4.269-1.855-6
			c-0.562,0.074-1.114,0.118-1.652,0.118c-1.6,0-3.217-0.241-4.84-0.655c-1.369,0.94-3.454,2.708-5.467,4.572
			C51.636-105.039,55.428-104.03,57.085-103.826z"/>
		<path fill="#2EABFF" d="M61.049-109.782c1.018,1.731,1.587,4.212,1.855,6c-1.969,0.053-4.722,0.091-5.819-0.044
			c-1.657-0.204-5.449-1.213-7.995-1.922c2.013-1.864,4.098-3.631,5.467-4.572c-1.148-0.293-2.298-0.679-3.447-1.164
			c-2.397,1.901-4.964,4.368-6.005,5.39l-1.824,1.79l2.452,0.72c0.168,0.049,2.268,0.664,4.664,1.302
			c0.991,0.265,2.028,0.531,3.006,0.765c1.313,0.314,2.514,0.57,3.314,0.668c0.711,0.087,1.861,0.117,3.069,0.117
			c2.142,0,4.466-0.091,4.852-0.107l1.54-0.063l-0.104-1.538c-0.042-0.613-0.382-4.737-2.012-8.05
			C63.028-110.146,62.022-109.91,61.049-109.782z"/>
		<path fill="#FFFFFF" d="M100.307-176.603c0-27.649-16.058-45.515-40.91-45.515s-40.91,17.866-40.91,45.515
			c0,29.28,22.176,63.938,40.91,63.938C73.619-112.664,100.307-146.536,100.307-176.603z"/>
		<path fill="#2EABFF" d="M103.307-176.603c0,14.37-5.745,30.853-15.762,45.222c-7.626,10.94-16.218,18.491-23.483,20.892
			c-1.034,0.342-2.04,0.579-3.013,0.707c-0.562,0.074-1.114,0.118-1.652,0.118c-1.6,0-3.217-0.241-4.84-0.655
			c-1.148-0.293-2.298-0.679-3.447-1.164c-18.046-7.617-35.623-38.004-35.623-65.119c0-29.472,17.236-48.515,43.91-48.515
			S103.307-206.074,103.307-176.603z M100.307-176.603c0-27.649-16.058-45.515-40.91-45.515s-40.91,17.866-40.91,45.515
			c0,29.28,22.176,63.938,40.91,63.938C73.619-112.664,100.307-146.536,100.307-176.603z"/>
	</g>
</pattern>
<rect x="-1" y="1" fill="url(#New_Pattern_Swatch_1)" width="1401" height="980"/>
</svg>
